HIERARCHY
ROOT hip
{
  OFFSET 5.70873 43.8894 -1.52928
  CHANNELS 6 Xposition Yposition Zposition Zrotation Xrotation Yrotation
  JOINT abdomen
  {
    OFFSET 0 5.99393 0.287273
    CHANNELS 6 Xposition Yposition Zposition Zrotation Xrotation Yrotation
    JOINT chest
    {
      OFFSET 0 6.65865 -0.856112
      CHANNELS 6 Xposition Yposition Zposition Zrotation Xrotation Yrotation
      JOINT neck
      {
        OFFSET 0 8.65624 -1.42685
        CHANNELS 6 Xposition Yposition Zposition Zrotation Xrotation Yrotation
        JOINT head
        {
          OFFSET 0 3.80999 -0.190247
          CHANNELS 6 Xposition Yposition Zposition Zrotation Xrotation Yrotation
          End Site
          {
            OFFSET 0 0 0
          }
        }
      }
      JOINT rCollar
      {
        OFFSET -1.4963 7.5744 -1.52136
        CHANNELS 6 Xposition Yposition Zposition Zrotation Xrotation Yrotation
        JOINT rShldr
        {
          OFFSET -5.47506 -0.905672 0.485692
          CHANNELS 6 Xposition Yposition Zposition Zrotation Xrotation Yrotation
          JOINT rForeArm
          {
            OFFSET -11.3069 -0.201091 0.618544
            CHANNELS 6 Xposition Yposition Zposition Zrotation Xrotation Yrotation
            JOINT rHand
            {
              OFFSET -9.61414 -0.254739 3.48553
              CHANNELS 6 Xposition Yposition Zposition Zrotation Xrotation Yrotation
              JOINT rThumb1
              {
                OFFSET 0.176263 -0.07068 1.26622
                CHANNELS 6 Xposition Yposition Zposition Zrotation Xrotation Yrotation
                JOINT rThumb2
                {
                  OFFSET -1.04683 -0.546484 1.82182
                  CHANNELS 6 Xposition Yposition Zposition Zrotation Xrotation Yrotation
                  JOINT rThumb3
                  {
                    OFFSET -0.993472 -0.621916 0.655506
                    CHANNELS 6 Xposition Yposition Zposition Zrotation Xrotation Yrotation
                    End Site
                    {
                      OFFSET -0.996134 -0.66263 0.644615
                    }
                  }
                }
              }
              JOINT rIndex1
              {
                OFFSET -2.64253 0.566363 2.4162
                CHANNELS 6 Xposition Yposition Zposition Zrotation Xrotation Yrotation
                JOINT rIndex2
                {
                  OFFSET -1.39394 -0.635138 0.899356
                  CHANNELS 6 Xposition Yposition Zposition Zrotation Xrotation Yrotation
                  JOINT rIndex3
                  {
                    OFFSET -0.622395 -0.856016 0.402182
                    CHANNELS 6 Xposition Yposition Zposition Zrotation Xrotation Yrotation
                    End Site
                    {
                      OFFSET -0.472476 -0.801802 0.34216
                    }
                  }
                }
              }
              JOINT rMid1
              {
                OFFSET -3.20814 0.514427 1.52547
                CHANNELS 6 Xposition Yposition Zposition Zrotation Xrotation Yrotation
                JOINT rMid2
                {
                  OFFSET -1.56545 -0.497974 0.68919
                  CHANNELS 6 Xposition Yposition Zposition Zrotation Xrotation Yrotation
                  JOINT rMid3
                  {
                    OFFSET -0.679943 -1.17582 0.444246
                    CHANNELS 6 Xposition Yposition Zposition Zrotation Xrotation Yrotation
                    End Site
                    {
                      OFFSET -0.343874 -0.941341 0.267611
                    }
                  }
                }
              }
              JOINT rRing1
              {
                OFFSET -3.47877 0.200518 0.597719
                CHANNELS 6 Xposition Yposition Zposition Zrotation Xrotation Yrotation
                JOINT rRing2
                {
                  OFFSET -1.28208 -0.53155 0.44672
                  CHANNELS 6 Xposition Yposition Zposition Zrotation Xrotation Yrotation
                  JOINT rRing3
                  {
                    OFFSET -0.710288 -0.970167 0.4032
                    CHANNELS 6 Xposition Yposition Zposition Zrotation Xrotation Yrotation
                    End Site
                    {
                      OFFSET -0.403228 -0.950952 0.378354
                    }
                  }
                }
              }
              JOINT rPinky1
              {
                OFFSET -3.42483 -0.278904 -0.240415
                CHANNELS 6 Xposition Yposition Zposition Zrotation Xrotation Yrotation
                JOINT rPinky2
                {
                  OFFSET -1.05787 -0.635999 0.156459
                  CHANNELS 6 Xposition Yposition Zposition Zrotation Xrotation Yrotation
                  JOINT rPinky3
                  {
                    OFFSET -0.42815 -0.754232 0.287187
                    CHANNELS 6 Xposition Yposition Zposition Zrotation Xrotation Yrotation
                    End Site
                    {
                      OFFSET -0.235717 -0.725605 0.279416
                    }
                  }
                }
              }
            }
          }
        }
      }
      JOINT lCollar
      {
        OFFSET 1.4963 7.5744 -1.52136
        CHANNELS 6 Xposition Yposition Zposition Zrotation Xrotation Yrotation
        JOINT lShldr
        {
          OFFSET 5.47506 -0.905672 0.485692
          CHANNELS 6 Xposition Yposition Zposition Zrotation Xrotation Yrotation
          JOINT lForeArm
          {
            OFFSET 11.3069 -0.201091 0.618544
            CHANNELS 6 Xposition Yposition Zposition Zrotation Xrotation Yrotation
            JOINT lHand
            {
              OFFSET 9.61414 -0.254739 3.48553
              CHANNELS 6 Xposition Yposition Zposition Zrotation Xrotation Yrotation
              JOINT lThumb1
              {
                OFFSET -0.176263 -0.07068 1.26622
                CHANNELS 6 Xposition Yposition Zposition Zrotation Xrotation Yrotation
                JOINT lThumb2
                {
                  OFFSET 1.04683 -0.546484 1.82182
                  CHANNELS 6 Xposition Yposition Zposition Zrotation Xrotation Yrotation
                  JOINT lThumb3
                  {
                    OFFSET 0.993472 -0.621916 0.655506
                    CHANNELS 6 Xposition Yposition Zposition Zrotation Xrotation Yrotation
                    End Site
                    {
                      OFFSET 0.996134 -0.66263 0.644615
                    }
                  }
                }
              }
              JOINT lIndex1
              {
                OFFSET 2.64253 0.566363 2.4162
                CHANNELS 6 Xposition Yposition Zposition Zrotation Xrotation Yrotation
                JOINT lIndex2
                {
                  OFFSET 1.39394 -0.635138 0.899356
                  CHANNELS 6 Xposition Yposition Zposition Zrotation Xrotation Yrotation
                  JOINT lIndex3
                  {
                    OFFSET 0.622395 -0.856016 0.402182
                    CHANNELS 6 Xposition Yposition Zposition Zrotation Xrotation Yrotation
                    End Site
                    {
                      OFFSET 0.472476 -0.801802 0.34216
                    }
                  }
                }
              }
              JOINT lMid1
              {
                OFFSET 3.20814 0.514427 1.52547
                CHANNELS 6 Xposition Yposition Zposition Zrotation Xrotation Yrotation
                JOINT lMid2
                {
                  OFFSET 1.56545 -0.497974 0.68919
                  CHANNELS 6 Xposition Yposition Zposition Zrotation Xrotation Yrotation
                  JOINT lMid3
                  {
                    OFFSET 0.679943 -1.17582 0.444246
                    CHANNELS 6 Xposition Yposition Zposition Zrotation Xrotation Yrotation
                    End Site
                    {
                      OFFSET 0.343874 -0.941341 0.267611
                    }
                  }
                }
              }
              JOINT lRing1
              {
                OFFSET 3.47877 0.200518 0.597719
                CHANNELS 6 Xposition Yposition Zposition Zrotation Xrotation Yrotation
                JOINT lRing2
                {
                  OFFSET 1.28208 -0.53155 0.44672
                  CHANNELS 6 Xposition Yposition Zposition Zrotation Xrotation Yrotation
                  JOINT lRing3
                  {
                    OFFSET 0.710288 -0.970167 0.4032
                    CHANNELS 6 Xposition Yposition Zposition Zrotation Xrotation Yrotation
                    End Site
                    {
                      OFFSET 0.403228 -0.950952 0.378354
                    }
                  }
                }
              }
              JOINT lPinky1
              {
                OFFSET 3.42483 -0.278904 -0.240415
                CHANNELS 6 Xposition Yposition Zposition Zrotation Xrotation Yrotation
                JOINT lPinky2
                {
                  OFFSET 1.05787 -0.635999 0.156459
                  CHANNELS 6 Xposition Yposition Zposition Zrotation Xrotation Yrotation
                  JOINT lPinky3
                  {
                    OFFSET 0.42815 -0.754232 0.287187
                    CHANNELS 6 Xposition Yposition Zposition Zrotation Xrotation Yrotation
                    End Site
                    {
                      OFFSET 0.235717 -0.725605 0.279416
                    }
                  }
                }
              }
            }
          }
        }
      }
    }
  }
  JOINT rThigh
  {
    OFFSET -4.17848 -1.02486 0.046356
    CHANNELS 6 Xposition Yposition Zposition Zrotation Xrotation Yrotation
    JOINT rShin
    {
      OFFSET 1.27155 -17.465 -0.237699
      CHANNELS 6 Xposition Yposition Zposition Zrotation Xrotation Yrotation
      JOINT rFoot
      {
        OFFSET 0.529163 -17.3815 -1.19582
        CHANNELS 6 Xposition Yposition Zposition Zrotation Xrotation Yrotation
        JOINT rToe
        {
          OFFSET -0.711591 -4.4863 4.0596
          CHANNELS 6 Xposition Yposition Zposition Zrotation Xrotation Yrotation
          End Site
          {
            OFFSET -0.869915 -1.10655 1.99006
          }
        }
      }
    }
  }
  JOINT lThigh
  {
    OFFSET 4.17848 -1.02486 0.046356
    CHANNELS 6 Xposition Yposition Zposition Zrotation Xrotation Yrotation
    JOINT lShin
    {
      OFFSET -1.27155 -17.465 -0.237699
      CHANNELS 6 Xposition Yposition Zposition Zrotation Xrotation Yrotation
      JOINT lFoot
      {
        OFFSET -0.529163 -17.3815 -1.19582
        CHANNELS 6 Xposition Yposition Zposition Zrotation Xrotation Yrotation
        JOINT lToe
        {
          OFFSET 0.711591 -4.4863 4.0596
          CHANNELS 6 Xposition Yposition Zposition Zrotation Xrotation Yrotation
          End Site
          {
            OFFSET 0.869915 -1.10655 1.99006
          }
        }
      }
    }
  }
}
MOTION
Frames:	4
Frame Time:	0.0333333
-0.0607398 43.8183 -0.152694 -11.4141 -3.07915 -11.8987 1.77636e-015 5.99393 0.287273 6.14281 1.00433 -2.441 8.88178e-016 6.65865 -0.856112 12.325 1.74072 -4.97635 1.77636e-015 8.65624 -1.42685 0.896602 -5.05382 -8.10492 0 3.80999 -0.190247 13.9653 -0.534683 -0.365431 -1.4963 7.5744 -1.52136 0.0727212 -0.00610306 0.179988 -5.47506 -0.905672 0.485692 72.9007 -7.74372 -8.66966 -11.3069 -0.201091 0.618544 1.01612 -8.84977 29.8113 -9.61414 -0.254739 3.48553 17.6558 -25.6325 10.0205 0.176263 -0.07068 1.26622 6.38853e-005 -0.000113525 1.17844e-005 -1.04683 -0.546484 1.82182 9.98294e-006 1.25193e-005 -3.94754e-007 -0.993472 -0.621916 0.655506 2.48527e-005 5.22279e-006 -1.06364e-005 -2.64253 0.566363 2.4162 -1.98129e-005 0.000143426 1.84098e-005 -1.39394 -0.635138 0.899356 -1.3764e-006 -2.61837e-006 9.76537e-006 -0.622395 -0.856016 0.402182 -2.04542e-005 -3.94447e-006 7.50575e-006 -3.20814 0.514427 1.52547 2.88065e-005 4.99778e-005 4.19561e-005 -1.56545 -0.497974 0.68919 1.58677e-005 -1.4568e-005 -1.44512e-005 -0.679943 -1.17582 0.444246 0.00156242 -0.00385253 0.00281636 -3.47877 0.200518 0.597719 4.52652e-005 2.54215e-005 4.61011e-005 -1.28208 -0.53155 0.44672 -5.45083e-006 -3.58089e-005 -7.21751e-005 -0.710288 -0.970167 0.4032 -4.67454e-006 2.36628e-005 1.87185e-005 -3.42483 -0.278904 -0.240415 2.08437e-005 9.52849e-006 3.27272e-005 -1.05787 -0.635999 0.156459 2.33477e-005 -5.35541e-005 -7.11549e-005 -0.42815 -0.754232 0.287187 -2.14807e-005 6.57782e-006 -2.28285e-005 1.4963 7.5744 -1.52136 0.761229 -0.0219733 -0.310162 5.47506 -0.905672 0.485692 -87.4028 -5.07962 26.0678 11.3069 -0.201091 0.618544 -12.5153 -15.5573 -33.1581 9.61414 -0.254739 3.48553 0.341171 1.54448 -0.494986 -0.176263 -0.07068 1.26622 8.96105e-005 0.000120381 -1.73732e-005 1.04683 -0.546484 1.82182 1.62477e-006 -1.26793e-005 9.18146e-006 0.993472 -0.621916 0.655506 -1.58791e-005 -3.27946e-005 7.35951e-006 2.64253 0.566363 2.4162 2.40257e-007 -2.39697e-006 1.44011e-007 1.39394 -0.635138 0.899356 2.11749e-007 -3.47223e-007 4.2307e-006 0.622395 -0.856016 0.402182 1.07607e-005 -8.97407e-006 4.46004e-006 3.20814 0.514427 1.52547 1.25451e-006 -1.04983e-005 5.44199e-006 1.56545 -0.497974 0.68919 1.84526e-006 -1.79053e-005 2.27857e-006 0.679943 -1.17582 0.444246 2.05749e-005 -0.000157352 0.000123721 3.47877 0.200518 0.597719 1.07127e-006 -1.22009e-005 -2.8754e-006 1.28208 -0.53155 0.44672 -9.36308e-007 1.31241e-005 8.23257e-006 0.710288 -0.970167 0.4032 1.603e-005 -4.56566e-005 4.45525e-005 3.42483 -0.278904 -0.240415 8.1699e-006 1.25858e-005 -7.05919e-006 1.05787 -0.635999 0.156459 -2.0569e-005 1.3239e-005 2.78956e-006 0.42815 -0.754232 0.287187 3.51575e-005 -4.45138e-005 4.08989e-005 -4.17848 -1.02486 0.046356 13.7667 9.44677 9.91706 1.27155 -17.465 -0.237699 0.302269 -3.18811 4.39723 0.529163 -17.3815 -1.19582 -2.80561 -0.735576 -16.0412 -0.711591 -4.4863 4.0596 0.120948 0.863382 -0.0243022 4.17848 -1.02486 0.046356 26.1946 -10.1131 9.28242 -1.27155 -17.465 -0.237699 1.28327 16.8905 3.09129 -0.529163 -17.3815 -1.19582 -11.0406 1.62738 0.179745 0.711591 -4.4863 4.0596 0.458883 -3.68839 0.200663 
-0.0606844 43.8201 -0.152668 -11.4056 -3.06334 -11.9759 0 5.99393 0.287273 6.15115 1.04983 -2.45019 -4.44089e-016 6.65865 -0.856112 12.3439 1.83014 -4.9997 1.77636e-015 8.65624 -1.42685 0.904573 -4.92301 -8.11449 -1.77636e-015 3.80999 -0.190247 14.0068 -0.395053 -0.360211 -1.4963 7.5744 -1.52136 0.05269 -0.00585859 0.161055 -5.47506 -0.905672 0.485692 72.971 -7.75566 -8.6778 -11.3069 -0.201091 0.618544 0.0461427 -8.21198 27.0005 -9.61414 -0.254739 3.48553 15.3976 -22.7894 8.2251 0.176263 -0.07068 1.26622 7.15504e-005 -0.000184663 1.88495e-005 -1.04683 -0.546484 1.82182 5.04431e-006 1.07771e-006 9.36379e-006 -0.993472 -0.621916 0.655506 2.9664e-006 1.58204e-005 7.45344e-006 -2.64253 0.566363 2.4162 2.00573e-005 -7.82699e-006 1.11995e-005 -1.39394 -0.635138 0.899356 1.17407e-005 8.57191e-007 1.16241e-005 -0.622395 -0.856016 0.402182 -3.87518e-005 1.44056e-005 1.4545e-005 -3.20814 0.514427 1.52547 7.99162e-006 6.48221e-005 3.27991e-005 -1.56545 -0.497974 0.68919 1.54341e-005 -1.33797e-005 -5.8891e-006 -0.679943 -1.17582 0.444246 0.00170082 -0.00413623 0.00308064 -3.47877 0.200518 0.597719 2.39058e-005 3.47791e-005 3.77915e-005 -1.28208 -0.53155 0.44672 -4.65994e-006 2.00186e-005 -1.00315e-005 -0.710288 -0.970167 0.4032 3.58316e-006 6.87859e-005 6.59688e-005 -3.42483 -0.278904 -0.240415 3.10136e-006 2.51676e-005 4.6667e-005 -1.05787 -0.635999 0.156459 1.2463e-005 3.53672e-006 -1.07039e-005 -0.42815 -0.754232 0.287187 -1.80546e-006 4.73674e-006 -2.85815e-005 1.4963 7.5744 -1.52136 0.724038 -0.0218892 -0.307941 5.47506 -0.905672 0.485692 -87.437 -5.11039 26.21 11.3069 -0.201091 0.618544 -12.6067 -15.4677 -33.3136 9.61414 -0.254739 3.48553 0.394266 1.64558 -0.584272 -0.176263 -0.07068 1.26622 7.3167e-005 9.99274e-005 -9.76998e-006 1.04683 -0.546484 1.82182 -2.27868e-005 -1.72444e-005 1.60081e-006 0.993472 -0.621916 0.655506 -3.12889e-005 -6.88862e-005 1.96555e-005 2.64253 0.566363 2.4162 5.52427e-007 -7.47939e-006 -4.36309e-006 1.39394 -0.635138 0.899356 9.93923e-017 0 3.18055e-015 0.622395 -0.856016 0.402182 2.31096e-005 -2.84428e-005 9.20853e-006 3.20814 0.514427 1.52547 -2.35239e-005 -4.84514e-005 -7.85288e-006 1.56545 -0.497974 0.68919 -7.33311e-006 -2.80514e-005 5.33647e-006 0.679943 -1.17582 0.444246 3.96197e-005 -1.29682e-005 -1.05349e-005 3.47877 0.200518 0.597719 -1.76803e-006 -3.1747e-005 -7.46957e-006 1.28208 -0.53155 0.44672 4.92941e-006 4.2688e-006 5.13472e-006 0.710288 -0.970167 0.4032 1.26436e-005 -9.1283e-005 0.0001081 3.42483 -0.278904 -0.240415 8.8917e-006 1.32548e-005 -1.68527e-005 1.05787 -0.635999 0.156459 9.2568e-006 3.02507e-007 4.29459e-006 0.42815 -0.754232 0.287187 2.53043e-005 -7.66366e-005 8.94848e-005 -4.17848 -1.02486 0.046356 13.7303 9.48721 9.92572 1.27155 -17.465 -0.237699 0.316363 -3.29571 4.44128 0.529163 -17.3815 -1.19582 -2.79936 -0.673824 -16.0079 -0.711591 -4.4863 4.0596 0.120949 0.863385 -0.0242916 4.17848 -1.02486 0.046356 26.1752 -10.0693 9.26089 -1.27155 -17.465 -0.237699 1.291 16.8288 3.13388 -0.529163 -17.3815 -1.19582 -11.0613 1.64067 0.259171 0.711591 -4.4863 4.0596 0.467647 -3.75768 0.204718 
-0.0608104 43.8221 -0.152455 -11.3897 -3.04382 -12.0474 1.77636e-015 5.99393 0.287273 6.15599 1.08781 -2.45695 4.44089e-016 6.65865 -0.856112 12.3556 1.90485 -5.01746 -1.77636e-015 8.65624 -1.42685 0.924525 -4.79028 -8.16619 -1.77636e-015 3.80999 -0.190247 14.0521 -0.267837 -0.410676 -1.4963 7.5744 -1.52136 0.034343 -0.00529323 0.139894 -5.47506 -0.905672 0.485692 73.0314 -7.76729 -8.70586 -11.3069 -0.201091 0.618544 -0.838921 -7.51942 24.1686 -9.61414 -0.254739 3.48553 13.1955 -19.8557 6.56597 0.176263 -0.07068 1.26622 2.97013e-005 -7.67311e-006 2.07611e-005 -1.04683 -0.546484 1.82182 -2.45529e-005 2.21775e-005 1.74594e-005 -0.993472 -0.621916 0.655506 -4.70666e-006 5.05252e-005 2.13673e-005 -2.64253 0.566363 2.4162 6.14358e-006 8.37481e-006 8.67123e-006 -1.39394 -0.635138 0.899356 1.99661e-005 -6.54681e-006 1.10103e-005 -0.622395 -0.856016 0.402182 -4.08549e-005 3.68821e-005 2.13317e-005 -3.20814 0.514427 1.52547 -1.95922e-005 0.000135983 3.74765e-005 -1.56545 -0.497974 0.68919 1.74663e-005 5.08939e-006 -5.80176e-007 -0.679943 -1.17582 0.444246 0.00184189 -0.00443477 0.00333897 -3.47877 0.200518 0.597719 1.10745e-005 8.8083e-005 3.46686e-005 -1.28208 -0.53155 0.44672 -1.53605e-005 0.000111664 5.95734e-005 -0.710288 -0.970167 0.4032 8.35245e-006 -2.32464e-005 -4.01068e-005 -3.42483 -0.278904 -0.240415 6.93439e-006 3.86013e-005 2.89079e-005 -1.05787 -0.635999 0.156459 -1.49168e-006 8.27626e-005 6.91293e-005 -0.42815 -0.754232 0.287187 -5.72279e-006 3.4743e-005 1.59435e-005 1.4963 7.5744 -1.52136 0.681129 -0.0216783 -0.305181 5.47506 -0.905672 0.485692 -87.4686 -5.12865 26.2984 11.3069 -0.201091 0.618544 -12.6947 -15.4053 -33.4632 9.61414 -0.254739 3.48553 0.440285 1.71431 -0.657137 -0.176263 -0.07068 1.26622 6.21198e-005 4.92561e-005 -2.46044e-005 1.04683 -0.546484 1.82182 -4.33233e-005 -3.66594e-005 2.59692e-005 0.993472 -0.621916 0.655506 -4.77091e-005 -0.00014034 5.02498e-005 2.64253 0.566363 2.4162 -1.66335e-005 -2.70112e-005 3.3341e-006 1.39394 -0.635138 0.899356 -1.96569e-005 2.88518e-006 3.4594e-007 0.622395 -0.856016 0.402182 2.07359e-005 -5.35952e-005 3.27718e-005 3.20814 0.514427 1.52547 -7.40903e-005 -0.000137152 -4.51591e-006 1.56545 -0.497974 0.68919 -8.41397e-006 -5.0013e-005 2.51435e-005 0.679943 -1.17582 0.444246 1.05063e-005 -1.08267e-005 -6.22911e-006 3.47877 0.200518 0.597719 -3.14996e-005 -6.8446e-005 1.14225e-006 1.28208 -0.53155 0.44672 9.07079e-006 9.21178e-006 7.01029e-006 0.710288 -0.970167 0.4032 -3.96776e-007 2.11113e-006 -4.93803e-006 3.42483 -0.278904 -0.240415 -1.27259e-006 1.1844e-005 -3.11322e-006 1.05787 -0.635999 0.156459 -3.19364e-007 5.08119e-006 4.50857e-006 0.42815 -0.754232 0.287187 -9.93148e-007 7.398e-006 -7.05821e-006 -4.17848 -1.02486 0.046356 13.7012 9.45246 9.92924 1.27155 -17.465 -0.237699 0.329213 -3.25701 4.48541 0.529163 -17.3815 -1.19582 -2.79846 -0.682078 -15.9788 -0.711591 -4.4863 4.0596 0.120944 0.863389 -0.024288 4.17848 -1.02486 0.046356 26.152 -10.029 9.25712 -1.27155 -17.465 -0.237699 1.29877 16.7657 3.1773 -0.529163 -17.3815 -1.19582 -11.0693 1.6574 0.308991 0.711591 -4.4863 4.0596 0.473235 -3.80186 0.207317 
-0.0610003 43.8241 -0.152051 -11.3717 -3.01988 -12.1132 0 5.99393 0.287273 6.16222 1.11508 -2.46232 4.44089e-016 6.65865 -0.856112 12.3694 1.95838 -5.0312 -1.77636e-015 8.65624 -1.42685 0.951881 -4.64041 -8.25461 -1.77636e-015 3.80999 -0.190247 14.0922 -0.153536 -0.512477 -1.4963 7.5744 -1.52136 0.0171635 -0.0043846 0.115874 -5.47506 -0.905672 0.485692 73.0829 -7.77399 -8.73221 -11.3069 -0.201091 0.618544 -1.62125 -6.8061 21.3751 -9.61414 -0.254739 3.48553 11.0922 -16.8583 5.06938 0.176263 -0.07068 1.26622 4.81316e-005 -1.69099e-005 -5.15031e-006 -1.04683 -0.546484 1.82182 -5.05663e-005 4.90354e-005 3.44734e-005 -0.993472 -0.621916 0.655506 -2.90615e-005 0.000109592 5.49277e-005 -2.64253 0.566363 2.4162 1.19799e-005 -1.07247e-007 1.54049e-005 -1.39394 -0.635138 0.899356 -8.39329e-006 5.2712e-006 1.4649e-005 -0.622395 -0.856016 0.402182 -3.11294e-005 6.67998e-005 4.58122e-005 -3.20814 0.514427 1.52547 8.80073e-006 -2.12214e-006 3.32237e-005 -1.56545 -0.497974 0.68919 3.30919e-006 2.31632e-005 9.37955e-006 -0.679943 -1.17582 0.444246 0.00196402 -0.00474428 0.00359388 -3.47877 0.200518 0.597719 -2.13396e-005 0.000155078 3.98837e-005 -1.28208 -0.53155 0.44672 3.663e-006 -4.23985e-005 -3.38821e-005 -0.710288 -0.970167 0.4032 1.25988e-006 -1.90523e-005 -2.49452e-005 -3.42483 -0.278904 -0.240415 -1.63471e-005 4.11693e-005 2.99552e-005 -1.05787 -0.635999 0.156459 1.58267e-005 -3.92046e-005 -1.94466e-005 -0.42815 -0.754232 0.287187 -1.88762e-005 7.89854e-005 9.24504e-005 1.4963 7.5744 -1.52136 0.63033 -0.0213597 -0.301172 5.47506 -0.905672 0.485692 -87.5048 -5.13363 26.3462 11.3069 -0.201091 0.618544 -12.7811 -15.3655 -33.6106 9.61414 -0.254739 3.48553 0.484406 1.77683 -0.722613 -0.176263 -0.07068 1.26622 2.1869e-005 -3.06989e-005 -2.91239e-005 1.04683 -0.546484 1.82182 -4.52151e-005 -7.15967e-005 3.73741e-005 0.993472 -0.621916 0.655506 -7.94531e-007 7.05037e-006 -2.82404e-006 2.64253 0.566363 2.4162 -1.00598e-005 -4.45359e-005 -4.09154e-006 1.39394 -0.635138 0.899356 4.73423e-007 -3.38301e-006 3.80954e-006 0.622395 -0.856016 0.402182 1.23561e-005 -0.000109916 4.32088e-005 3.20814 0.514427 1.52547 2.17995e-005 2.53282e-005 8.59166e-006 1.56545 -0.497974 0.68919 -1.83596e-005 -9.57982e-005 3.64987e-005 0.679943 -1.17582 0.444246 3.1407e-005 -2.42052e-005 -1.11256e-006 3.47877 0.200518 0.597719 -5.38674e-005 -0.000144739 -1.89279e-005 1.28208 -0.53155 0.44672 1.9882e-005 -1.04083e-006 1.03928e-005 0.710288 -0.970167 0.4032 -6.20257e-007 1.68664e-006 -1.21298e-005 3.42483 -0.278904 -0.240415 1.00826e-005 5.11027e-007 -3.65997e-006 1.05787 -0.635999 0.156459 1.01969e-005 -7.15399e-006 -5.23697e-006 0.42815 -0.754232 0.287187 1.47865e-005 -7.0866e-006 -4.27544e-006 -4.17848 -1.02486 0.046356 13.6725 9.40774 9.93197 1.27155 -17.465 -0.237699 0.341957 -3.20075 4.52945 0.529163 -17.3815 -1.19582 -2.79773 -0.707128 -15.9546 -0.711591 -4.4863 4.0596 0.12093 0.863382 -0.0242685 4.17848 -1.02486 0.046356 26.1316 -9.99205 9.27459 -1.27155 -17.465 -0.237699 1.30658 16.7024 3.22079 -0.529163 -17.3815 -1.19582 -11.0776 1.67432 0.334629 0.711591 -4.4863 4.0596 0.47544 -3.81922 0.208341 
